<?xml version="1.0" encoding="UTF-8" standalone="no"?>
<svg
   xmlns:dc="http://purl.org/dc/elements/1.1/"
   xmlns:cc="http://creativecommons.org/ns#"
   xmlns:rdf="http://www.w3.org/1999/02/22-rdf-syntax-ns#"
   xmlns:svg="http://www.w3.org/2000/svg"
   xmlns="http://www.w3.org/2000/svg"
   xmlns:sodipodi="http://sodipodi.sourceforge.net/DTD/sodipodi-0.dtd"
   xmlns:inkscape="http://www.inkscape.org/namespaces/inkscape"
   id="Layer_1"
   data-name="Layer 1"
   viewBox="0 0 25.07 25"
   version="1.1"
   sodipodi:docname="ic_black_circle_drop_down.svg"
   inkscape:version="0.92.4 (5da689c313, 2019-01-14)">
  <metadata
     id="metadata13">
    <rdf:RDF>
      <cc:Work
         rdf:about="">
        <dc:format>image/svg+xml</dc:format>
        <dc:type
           rdf:resource="http://purl.org/dc/dcmitype/StillImage" />
      </cc:Work>
    </rdf:RDF>
  </metadata>
  <defs
     id="defs11" />
  <sodipodi:namedview
     pagecolor="#ffffff"
     bordercolor="#666666"
     borderopacity="1"
     objecttolerance="10"
     gridtolerance="10"
     guidetolerance="10"
     inkscape:pageopacity="0"
     inkscape:pageshadow="2"
     inkscape:window-width="1858"
     inkscape:window-height="1177"
     id="namedview9"
     showgrid="false"
     inkscape:zoom="26.700352"
     inkscape:cx="11.273206"
     inkscape:cy="10.88851"
     inkscape:window-x="1912"
     inkscape:window-y="-8"
     inkscape:window-maximized="1"
     inkscape:current-layer="Layer_1" />
  <title
     id="title2">ic_black_circle_drop_down</title>
  <path
     d="M12.57,2.75A9.75,9.75,0,1,1,2.82,12.5a9.76,9.76,0,0,1,9.75-9.75m0-2.75a12.5,12.5,0,1,0,12.5,12.5A12.5,12.5,0,0,0,12.57,0Z"
     id="path4" />
  <path
     d="M18,11.3,13,16.24a.65.65,0,0,1-.91,0L7.17,11.3a.65.65,0,0,1,.46-1.1h9.88A.64.64,0,0,1,18,11.3Z"
     id="path6" />
  <path
     style="fill:#ffffff;fill-opacity:1;stroke:#000000;stroke-width:0.03745269;stroke-opacity:1"
     d="M 11.408036,24.929791 C 8.5361612,24.665082 5.7877094,23.364377 3.7240064,21.293324 0.90939825,18.468692 -0.38039048,14.46989 0.24937997,10.520752 0.92314017,6.2957651 3.7490266,2.6889516 7.7002198,1.0108899 8.8750901,0.51192556 10.218881,0.17878979 11.520394,0.06384064 c 0.633261,-0.05592936 2.102319,-0.02408974 2.694092,0.05839037 3.341998,0.46580115 6.30987,2.20398349 8.319391,4.87238579 1.296692,1.721851 2.11729,3.7194386 2.41433,5.8772152 0.08409,0.610854 0.11465,2.047668 0.05706,2.68261 -0.551383,6.078813 -5.297243,10.836967 -11.350067,11.379469 -0.503968,0.04517 -1.736939,0.04291 -2.247161,-0.0041 z m 1.857833,-2.691714 c 1.327703,-0.104739 2.454417,-0.412589 3.628986,-0.991542 0.964016,-0.47517 1.715956,-1.008773 2.504129,-1.777018 2.497081,-2.433942 3.489412,-5.991466 2.624847,-9.410128 C 21.867642,9.4417855 21.640252,8.8384709 21.313694,8.1752385 20.799765,7.1314601 20.21969,6.3339819 19.376073,5.5114279 17.874765,4.0476026 16.06646,3.1570952 13.936093,2.8324873 13.31325,2.7375836 12.023798,2.7177097 11.445489,2.7941003 10.251394,2.9518322 9.2847671,3.2424015 8.2356869,3.7589709 6.214224,4.7543435 4.5734846,6.460597 3.6538409,8.5237676 2.6175938,10.848532 2.5307521,13.499822 3.4123757,15.895734 c 0.3180808,0.86442 0.937637,1.963526 1.5170915,2.691352 1.2657994,1.589913 3.0923866,2.789441 5.0751018,3.332843 1.069043,0.292992 2.191786,0.402518 3.2613,0.318148 z"
     id="path820"
     inkscape:connector-curvature="0" />
  <path
     style="fill:#ffffff;fill-opacity:1;stroke:#000000;stroke-width:0.03745269;stroke-opacity:1"
     d="M 12.250722,16.324918 C 12.101588,16.230805 7.1220857,11.234194 7.0640669,11.120443 6.9613263,10.919011 7.0313732,10.54962 7.201508,10.39565 c 0.2065215,-0.186899 -0.024442,-0.17924 5.405014,-0.17924 4.163863,0 5.079938,0.0089 5.179622,0.0506 0.186512,0.07793 0.354103,0.292696 0.384005,0.492098 0.02106,0.140441 0.0097,0.201268 -0.06301,0.337379 -0.111126,0.208022 -5.125409,5.16955 -5.302787,5.246996 -0.170002,0.07423 -0.41987,0.06585 -0.55363,-0.01856 z"
     id="path822"
     inkscape:connector-curvature="0" />
</svg>
