<svg id="Layer_1" data-name="Layer 1" xmlns="http://www.w3.org/2000/svg" viewBox="0 0 25.05 25.17"><defs><style>.cls-1{fill:#dadcda;}</style></defs><title>ic_black_color_picker_&amp;amp;bg</title><circle class="cls-1" cx="12.55" cy="12.5" r="12.5"/><path d="M19.17,9.58l1-1a2.68,2.68,0,0,0,.36-3.43,2.61,2.61,0,0,0-4-.34l-1.05,1-.36-.37A1.57,1.57,0,1,0,12.9,7.74l.37.36L5.65,15.72a.62.62,0,0,0-.14.28l-.28,1.62-.63.63a1.57,1.57,0,0,0,2.22,2.21l.62-.63,1.62-.27a.48.48,0,0,0,.28-.15L17,11.79l.37.37A1.56,1.56,0,0,0,19.54,10Zm-6.23,4.76H8.51L14,8.84l2.21,2.22Z"/></svg>