<?xml version="1.0" encoding="UTF-8" standalone="no"?>
<!-- Created with Inkscape (http://www.inkscape.org/) -->

<svg
   xmlns:dc="http://purl.org/dc/elements/1.1/"
   xmlns:cc="http://creativecommons.org/ns#"
   xmlns:rdf="http://www.w3.org/1999/02/22-rdf-syntax-ns#"
   xmlns:svg="http://www.w3.org/2000/svg"
   xmlns="http://www.w3.org/2000/svg"
   xmlns:sodipodi="http://sodipodi.sourceforge.net/DTD/sodipodi-0.dtd"
   xmlns:inkscape="http://www.inkscape.org/namespaces/inkscape"
   width="8.7386179mm"
   height="6.8477359mm"
   viewBox="0 0 8.7386179 6.8477359"
   version="1.1"
   id="svg3887"
   inkscape:version="0.92.4 (5da689c313, 2019-01-14)"
   sodipodi:docname="ic_displayoptions.svg">
  <defs
     id="defs3881" />
  <sodipodi:namedview
     id="base"
     pagecolor="#ffffff"
     bordercolor="#666666"
     borderopacity="1.0"
     inkscape:pageopacity="0.0"
     inkscape:pageshadow="2"
     inkscape:zoom="7.9195959"
     inkscape:cx="29.423713"
     inkscape:cy="19.107392"
     inkscape:document-units="mm"
     inkscape:current-layer="layer1"
     showgrid="false"
     inkscape:window-width="2498"
     inkscape:window-height="1417"
     inkscape:window-x="-8"
     inkscape:window-y="-8"
     inkscape:window-maximized="1"
     fit-margin-top="0"
     fit-margin-left="0"
     fit-margin-right="0"
     fit-margin-bottom="0" />
  <metadata
     id="metadata3884">
    <rdf:RDF>
      <cc:Work
         rdf:about="">
        <dc:format>image/svg+xml</dc:format>
        <dc:type
           rdf:resource="http://purl.org/dc/dcmitype/StillImage" />
        <dc:title></dc:title>
      </cc:Work>
    </rdf:RDF>
  </metadata>
  <g
     inkscape:label="Layer 1"
     inkscape:groupmode="layer"
     id="layer1"
     transform="translate(71.64907,36.019102)">
    <g
       id="g3866"
       transform="translate(-196.70536,-224.29184)">
      <path
         transform="scale(0.26458333)"
         inkscape:connector-curvature="0"
         id="path3854"
         d="m 474.1711,732.615 c -0.70535,-0.22578 -1.26833,-0.80945 -1.4487,-1.50195 -0.0607,-0.23287 -0.0687,-1.28235 -0.0687,-8.99952 0,-8.66289 7.6e-4,-8.73838 0.0909,-9.03036 0.18133,-0.58708 0.69378,-1.13757 1.2786,-1.3735 l 0.25992,-0.10486 14.81089,-0.0114 14.8109,-0.0114 0.27839,0.093 c 0.57808,0.19316 1.04218,0.61223 1.31821,1.1903 l 0.16554,0.34667 0.0119,8.77232 c 0.008,6.19628 -0.002,8.84132 -0.0368,9.00726 -0.15931,0.7698 -0.85327,1.48533 -1.60967,1.65971 -0.12989,0.0299 -5.14653,0.0447 -14.9056,0.0438 -13.92938,-10e-4 -14.72287,-0.005 -14.95585,-0.0801 z m 29.78842,-1.04139 c 0.28935,-0.13109 0.47354,-0.304 0.6016,-0.56478 l 0.12387,-0.25224 v -8.63839 -8.63839 l -0.0932,-0.20139 c -0.11934,-0.25782 -0.34291,-0.48061 -0.59825,-0.59617 l -0.20139,-0.0911 -14.64286,0.0135 c -15.85994,0.0146 -14.76087,-0.003 -15.08802,0.24622 -0.0756,0.0577 -0.19723,0.21274 -0.27026,0.3446 l -0.13279,0.23975 -0.0119,8.5491 c -0.008,6.01372 0.002,8.61849 0.0365,8.78304 0.0705,0.34065 0.28267,0.62978 0.57269,0.78045 l 0.24023,0.12481 14.64816,-0.0116 c 13.67229,-0.0108 14.65931,-0.0166 14.81555,-0.0874 z"
         style="fill:#ffffff;stroke-width:0.04464286" />
      <path
         transform="scale(0.26458333)"
         inkscape:connector-curvature="0"
         id="path3856"
         d="m 485.73539,724.33142 c -0.0253,-0.0665 -0.0461,-0.33547 -0.0463,-0.59782 -2.2e-4,-0.26235 -0.0129,-0.58133 -0.0282,-0.70883 l -0.0279,-0.23182 -0.30469,-0.0926 c -0.16758,-0.0509 -0.54485,-0.21276 -0.83838,-0.35969 -0.29353,-0.14693 -0.54518,-0.26715 -0.55922,-0.26715 -0.014,0 -0.2292,0.24609 -0.47813,0.54687 -0.24892,0.30079 -0.46947,0.5652 -0.49009,0.5876 -0.0531,0.0576 -0.36156,-0.16688 -0.62442,-0.45449 l -0.22056,-0.24134 0.0924,-0.12981 c 0.0508,-0.0714 0.29204,-0.33223 0.53599,-0.57961 0.24395,-0.24739 0.44354,-0.46887 0.44354,-0.49219 0,-0.0233 -0.0888,-0.21918 -0.19732,-0.43527 -0.10852,-0.21609 -0.26171,-0.57729 -0.34041,-0.80268 l -0.1431,-0.4098 h -0.77244 -0.77245 l -0.0286,-0.23437 c -0.0157,-0.12891 -0.0222,-0.36496 -0.0144,-0.52455 l 0.0142,-0.29018 0.78887,-0.0122 0.78886,-0.0122 0.096,-0.2971 c 0.12097,-0.37445 0.30273,-0.77544 0.48061,-1.06032 l 0.13804,-0.22106 -0.0932,-0.13608 c -0.0513,-0.0748 -0.29083,-0.3391 -0.53234,-0.58721 -0.24152,-0.24811 -0.43912,-0.48344 -0.43912,-0.52295 0,-0.0868 0.57976,-0.70004 0.66183,-0.70004 0.0319,0 0.2627,0.19587 0.51284,0.43527 0.25013,0.2394 0.50697,0.48109 0.57075,0.5371 l 0.11596,0.10183 0.45248,-0.22652 c 0.24887,-0.12459 0.62349,-0.2809 0.8325,-0.34737 l 0.38002,-0.12085 2.2e-4,-0.76531 c 1.8e-4,-0.65656 0.0102,-0.76916 0.0708,-0.79241 0.14665,-0.0563 0.76934,-0.029 0.83492,0.0366 0.0627,0.0627 0.0864,0.24661 0.14784,1.14584 l 0.0293,0.42828 0.31755,0.10228 c 0.17465,0.0562 0.52869,0.21006 0.78676,0.3418 0.25805,0.13174 0.47471,0.23953 0.48145,0.23953 0.007,0 0.26243,-0.24107 0.56819,-0.53571 0.30576,-0.29465 0.57465,-0.53572 0.59753,-0.53572 0.0673,0 0.52635,0.38995 0.62927,0.53448 0.12517,0.17579 0.10509,0.20945 -0.49552,0.83066 l -0.48517,0.50182 0.2207,0.43929 c 0.12139,0.24161 0.26969,0.61005 0.32955,0.81875 l 0.10884,0.37947 0.78185,0.0122 c 0.68028,0.0106 0.78555,0.0218 0.81029,0.0863 0.0156,0.0408 0.0405,0.25814 0.0553,0.48305 l 0.0269,0.40892 -0.28529,0.0303 c -0.15691,0.0167 -0.52976,0.0429 -0.82856,0.0584 l -0.54326,0.028 -0.0513,0.20367 c -0.0618,0.24524 -0.30572,0.78228 -0.49547,1.09067 -0.11465,0.18633 -0.13004,0.24171 -0.091,0.32745 0.0259,0.0568 0.2687,0.33203 0.53966,0.61173 0.27095,0.27969 0.49263,0.53135 0.49263,0.55924 0,0.0589 -0.61829,0.72061 -0.67336,0.72061 -0.0204,0 -0.28907,-0.24107 -0.59713,-0.53571 -0.30807,-0.29464 -0.58445,-0.53572 -0.6142,-0.53572 -0.0297,0 -0.20546,0.0781 -0.39049,0.17349 -0.34123,0.17595 -0.71762,0.32026 -1.06187,0.40709 l -0.18973,0.0479 v 0.77475 c 0,0.64407 -0.0112,0.77904 -0.0663,0.8002 -0.0365,0.014 -0.24682,0.0391 -0.46745,0.0557 l -0.40116,0.0303 z m 1.08817,-2.70319 c 0.49894,-0.12761 0.84785,-0.32759 1.21668,-0.69737 0.49982,-0.50109 0.74132,-1.08869 0.74132,-1.80373 0,-0.71558 -0.24626,-1.31533 -0.74389,-1.8117 -0.86093,-0.85874 -2.11587,-1.01605 -3.17945,-0.39854 -0.32487,0.18862 -0.77498,0.66867 -0.94252,1.00522 -0.56657,1.13809 -0.26473,2.49877 0.71946,3.24336 0.65601,0.4963 1.42305,0.6585 2.1884,0.46276 z"
         style="fill:#ffffff;stroke-width:0.04464286" />
      <path
         transform="scale(0.26458333)"
         inkscape:connector-curvature="0"
         id="path3858"
         d="m 494.44861,730.17142 c -0.0541,-0.0826 -0.0984,-0.1617 -0.0984,-0.17579 0,-0.0141 -0.0812,-0.19574 -0.18046,-0.40369 l -0.18045,-0.37809 -0.58964,0.0124 -0.58963,0.0125 -0.0993,0.20089 c -0.0546,0.11049 -0.1651,0.34152 -0.24554,0.51339 -0.14329,0.30622 -0.14938,0.31225 -0.30248,0.29968 -0.0859,-0.007 -0.30101,-0.0843 -0.47793,-0.17175 -0.31424,-0.15525 -0.32105,-0.16218 -0.29444,-0.29968 0.015,-0.0774 0.0922,-0.29142 0.17166,-0.47557 0.23602,-0.54722 0.23758,-0.50907 -0.0325,-0.79539 -0.13165,-0.13954 -0.30214,-0.33114 -0.37886,-0.42576 l -0.1395,-0.17205 -0.59505,0.22297 -0.59506,0.22297 -0.12388,-0.21691 c -0.0681,-0.1193 -0.16563,-0.32283 -0.21666,-0.45229 l -0.0928,-0.23539 0.096,-0.0674 c 0.0528,-0.0371 0.30048,-0.15843 0.55046,-0.26972 l 0.45451,-0.20235 0.0337,-0.55658 0.0337,-0.55658 -0.12001,-0.0975 c -0.066,-0.0536 -0.29563,-0.17027 -0.51028,-0.25924 -0.21464,-0.089 -0.41072,-0.18642 -0.43573,-0.21655 -0.0595,-0.0717 -0.008,-0.2935 0.14953,-0.64457 0.15166,-0.33795 0.18384,-0.34318 0.73619,-0.11955 0.21485,0.087 0.43992,0.16232 0.50015,0.16741 0.0823,0.007 0.20671,-0.0824 0.50071,-0.35951 0.44165,-0.41631 0.43918,-0.40631 0.22254,-0.8974 -0.0581,-0.13166 -0.13405,-0.33519 -0.16883,-0.4523 l -0.0632,-0.21291 0.25272,-0.12422 c 0.139,-0.0683 0.34271,-0.15148 0.4527,-0.18481 0.19079,-0.0578 0.20355,-0.0559 0.27756,0.0408 0.0427,0.0558 0.12141,0.21189 0.17499,0.34693 0.0536,0.13505 0.14509,0.33594 0.20336,0.44643 l 0.10594,0.2009 h 0.54587 c 0.63928,0 0.62092,0.0113 0.83488,-0.514 0.0751,-0.18448 0.17521,-0.39889 0.22239,-0.47645 0.10028,-0.16491 0.12242,-0.16338 0.64229,0.0443 l 0.35011,0.13989 -0.0254,0.15757 c -0.014,0.0867 -0.0958,0.32833 -0.18188,0.53704 -0.0861,0.2087 -0.15687,0.40999 -0.15732,0.44731 -4.5e-4,0.0373 0.18501,0.25168 0.41213,0.47637 l 0.41295,0.40853 0.51339,-0.19498 c 0.28236,-0.10724 0.53793,-0.19605 0.56792,-0.19735 0.062,-0.003 0.40491,0.67882 0.424,0.84266 0.0114,0.0975 -0.0389,0.13087 -0.53553,0.35554 l -0.54807,0.24792 0.0124,0.60282 0.0124,0.60282 0.40179,0.18187 c 0.22098,0.10003 0.46677,0.21638 0.54619,0.25855 l 0.14441,0.0767 -0.11148,0.29617 c -0.1483,0.39399 -0.27704,0.5951 -0.38095,0.5951 -0.0466,0 -0.28403,-0.0804 -0.52763,-0.17857 -0.24361,-0.0982 -0.48307,-0.17857 -0.53216,-0.17857 -0.0507,0 -0.1827,0.10201 -0.30578,0.23635 -0.11909,0.12999 -0.28182,0.28444 -0.36162,0.34321 -0.0798,0.0588 -0.14509,0.13408 -0.14509,0.16734 0,0.0333 0.0815,0.31086 0.18103,0.6169 0.0996,0.30603 0.1686,0.57652 0.15342,0.60109 -0.0376,0.0609 -0.22382,0.1539 -0.56541,0.28247 l -0.28644,0.10781 z m -0.71838,-2.07131 c 0.57213,-0.10678 1.0571,-0.48049 1.32104,-1.01797 0.11366,-0.23145 0.12479,-0.29791 0.12479,-0.74519 0,-0.43934 -0.0126,-0.51796 -0.11965,-0.74634 -0.40663,-0.86758 -1.41527,-1.26831 -2.33049,-0.92588 -0.35905,0.13434 -0.77668,0.53159 -0.94733,0.90113 -0.1168,0.25291 -0.12932,0.32562 -0.12932,0.75109 0,0.45485 0.006,0.48279 0.16841,0.81181 0.19161,0.38769 0.45826,0.65491 0.82161,0.82335 0.38423,0.17812 0.7,0.22096 1.09094,0.148 z"
         style="fill:#ffffff;stroke-width:0.04464286" />
      <path
         transform="scale(0.26458333)"
         inkscape:connector-curvature="0"
         id="path3860"
         d="m 481.90284,737.40037 c -0.25875,-0.0919 -0.52067,-0.34932 -0.58926,-0.5792 -0.11125,-0.37288 0.0531,-0.71382 0.44856,-0.93065 l 0.24428,-0.13393 1.14955,-0.0145 c 0.63225,-0.008 1.15379,-0.018 1.15897,-0.0223 0.005,-0.004 0.0202,-0.58037 0.0335,-1.28015 l 0.0241,-1.27232 h 4.79911 4.7991 l 0.0223,1.27232 0.0223,1.27232 1.13839,0.0223 c 1.28233,0.0251 1.40275,0.0518 1.68462,0.37284 0.17177,0.19564 0.20827,0.31811 0.18061,0.60602 -0.0266,0.27707 -0.14903,0.44455 -0.44454,0.60824 l -0.23766,0.13165 -7.12053,0.008 c -6.29944,0.007 -7.14278,2e-5 -7.3134,-0.0606 z"
         style="fill:#ffffff;stroke-width:0.04464286" />
    </g>
  </g>
</svg>
