<svg id="Layer_1" data-name="Layer 1" xmlns="http://www.w3.org/2000/svg" viewBox="0 0 18.24 18.16"><defs><style>.cls-1{fill:#030405;}</style></defs><title>ic_node</title><rect class="cls-1" x="7.17" y="15.37" width="1.57" height="1.05"/><path class="cls-1" d="M2.09,16.42H.52A.52.52,0,0,1,0,15.9V14.33H1.05v1h1Z"/><rect class="cls-1" y="6.99" width="1.05" height="2.45"/><path class="cls-1" d="M1.05,2.09H0V.52A.52.52,0,0,1,.52,0H2.09V1.05h-1Z"/><rect class="cls-1" x="6.99" width="2.45" height="1.05"/><path class="cls-1" d="M16.42,2.09H15.37v-1h-1V0H15.9a.52.52,0,0,1,.52.52Z"/><rect class="cls-1" x="15.37" y="7.84" width="1.05" height="1.57"/><path d="M18.06,16.79,16.82,18a.44.44,0,0,1-.62,0l-2.64-2.62a.43.43,0,0,0-.61,0L11.4,17a.44.44,0,0,1-.74-.26L10,10.4a.43.43,0,0,1,.48-.48l6.29.69a.44.44,0,0,1,.26.74l-1.56,1.57a.43.43,0,0,0,0,.61l2.63,2.65A.43.43,0,0,1,18.06,16.79Z"/></svg>