<?xml version="1.0" encoding="UTF-8" standalone="no"?>
<svg
   xmlns:dc="http://purl.org/dc/elements/1.1/"
   xmlns:cc="http://creativecommons.org/ns#"
   xmlns:rdf="http://www.w3.org/1999/02/22-rdf-syntax-ns#"
   xmlns:svg="http://www.w3.org/2000/svg"
   xmlns="http://www.w3.org/2000/svg"
   xmlns:sodipodi="http://sodipodi.sourceforge.net/DTD/sodipodi-0.dtd"
   xmlns:inkscape="http://www.inkscape.org/namespaces/inkscape"
   id="Layer_1"
   data-name="Layer 1"
   viewBox="0 0 17.01 18.42"
   version="1.1"
   sodipodi:docname="ic_notification.svg"
   inkscape:version="0.92.4 (5da689c313, 2019-01-14)">
  <metadata
     id="metadata13">
    <rdf:RDF>
      <cc:Work
         rdf:about="">
        <dc:format>image/svg+xml</dc:format>
        <dc:type
           rdf:resource="http://purl.org/dc/dcmitype/StillImage" />
      </cc:Work>
    </rdf:RDF>
  </metadata>
  <sodipodi:namedview
     pagecolor="#ffffff"
     bordercolor="#666666"
     borderopacity="1"
     objecttolerance="10"
     gridtolerance="10"
     guidetolerance="10"
     inkscape:pageopacity="0"
     inkscape:pageshadow="2"
     inkscape:window-width="1858"
     inkscape:window-height="1177"
     id="namedview11"
     showgrid="false"
     inkscape:zoom="12.812161"
     inkscape:cx="8.5050001"
     inkscape:cy="9.21"
     inkscape:window-x="1912"
     inkscape:window-y="-8"
     inkscape:window-maximized="1"
     inkscape:current-layer="Layer_1" />
  <defs
     id="defs4">
    <style
       id="style2">.cls-1{fill:#0d0d0d;}</style>
  </defs>
  <title
     id="title6">ic_notification</title>
  <path
     class="cls-1"
     d="M16.63,14.58c-2.68-1.66-2.54-7-2.54-7.12a5.6,5.6,0,0,0-4-5.35V1.63a1.63,1.63,0,1,0-3.25,0v.48a5.61,5.61,0,0,0-4,5.37C3,9,2.61,13.2.37,14.58A.79.79,0,0,0,.79,16H5.52a3.06,3.06,0,0,0,6,0h4.73a.79.79,0,0,0,.76-.57A.81.81,0,0,0,16.63,14.58ZM7.8,14.46H2.73c1.89-2.66,1.77-6.81,1.76-7a4,4,0,0,1,8,0c0,.21-.12,4.37,1.77,7Z"
     id="path8" />
  <path
     style="fill:#ffffff;fill-opacity:1;stroke:#000000;stroke-width:0.07805084;stroke-opacity:1"
     d="M 7.7322967,18.310561 C 6.6944896,17.981485 5.9281344,17.250349 5.6585725,16.33214 L 5.5611895,16.000424 H 3.1904862 c -2.51874999,0 -2.80035727,-0.03572 -2.98381387,-0.378516 -0.0463833,-0.08667 -0.0843333,-0.287733 -0.0843333,-0.446812 0,-0.238661 0.0509738,-0.331677 0.29152944,-0.531974 C 1.5956938,13.659082 2.2712551,12.429043 2.6565733,10.559683 2.8288938,9.7236745 2.9478988,8.3035034 2.8939386,7.7270339 2.8359535,7.1075648 2.9946603,6.14826 3.2664525,5.4753704 3.8591462,4.0080086 4.9709501,2.8886433 6.420868,2.2995016 L 6.8737374,2.1154883 6.886349,1.6236128 C 6.9014853,1.0332675 6.9804978,0.80853349 7.3014258,0.44301678 7.8064099,-0.13212822 8.7228517,-0.23851348 9.3535962,0.20479041 9.8125337,0.52734337 9.98221,0.86149591 10.031956,1.5407173 l 0.04187,0.5716158 0.587585,0.255039 c 1.475702,0.6405235 2.572102,1.8259657 3.094099,3.3453843 0.162003,0.4715544 0.214063,0.8474643 0.300582,2.1703792 0.143888,2.2001284 0.323753,3.2161224 0.770267,4.3509364 0.40207,1.021861 0.851763,1.61992 1.870024,2.486997 0.227541,0.193757 0.284943,0.297748 0.284943,0.5162 0,0.330662 -0.277748,0.64309 -0.635271,0.714595 -0.133541,0.02671 -1.292097,0.04856 -2.57457,0.04856 -2.168408,0 -2.331822,0.0096 -2.332532,0.136589 -0.0013,0.237774 -0.363567,0.926978 -0.659205,1.254214 -0.763685,0.845308 -2.0536492,1.234457 -3.0474473,0.919334 z m 6.5172463,-3.878618 c 0,-0.04703 -0.06584,-0.178744 -0.146306,-0.292691 C 13.197422,12.856575 12.535148,10.17627 12.53127,7.7773026 12.529052,6.4049006 12.107807,5.3460713 11.241698,4.5358684 9.0964491,2.5290937 5.6284138,3.3870084 4.6841788,6.1580525 4.5462901,6.5627141 4.4973471,6.9330879 4.4562178,7.8831356 4.3741023,9.7799305 4.1519541,11.112953 3.695696,12.446724 c -0.1782794,0.521161 -0.6247433,1.44966 -0.8513731,1.770579 -0.080468,0.113946 -0.1463059,0.228096 -0.1463059,0.253665 0,0.02557 2.5990933,0.04649 5.7757628,0.04649 4.1345572,0 5.7757632,-0.0243 5.7757632,-0.08551 z"
     id="path820"
     inkscape:connector-curvature="0" />
</svg>
