<?xml version="1.0" encoding="UTF-8" standalone="no"?>
<svg
   xmlns:dc="http://purl.org/dc/elements/1.1/"
   xmlns:cc="http://creativecommons.org/ns#"
   xmlns:rdf="http://www.w3.org/1999/02/22-rdf-syntax-ns#"
   xmlns:svg="http://www.w3.org/2000/svg"
   xmlns="http://www.w3.org/2000/svg"
   xmlns:sodipodi="http://sodipodi.sourceforge.net/DTD/sodipodi-0.dtd"
   xmlns:inkscape="http://www.inkscape.org/namespaces/inkscape"
   id="Layer_1"
   data-name="Layer 1"
   viewBox="0 0 15.31 15.17"
   version="1.1"
   sodipodi:docname="ic_search.svg"
   inkscape:version="0.92.4 (5da689c313, 2019-01-14)">
  <metadata
     id="metadata11">
    <rdf:RDF>
      <cc:Work
         rdf:about="">
        <dc:format>image/svg+xml</dc:format>
        <dc:type
           rdf:resource="http://purl.org/dc/dcmitype/StillImage" />
      </cc:Work>
    </rdf:RDF>
  </metadata>
  <defs
     id="defs9" />
  <sodipodi:namedview
     pagecolor="#ffffff"
     bordercolor="#666666"
     borderopacity="1"
     objecttolerance="10"
     gridtolerance="10"
     guidetolerance="10"
     inkscape:pageopacity="0"
     inkscape:pageshadow="2"
     inkscape:window-width="1858"
     inkscape:window-height="1177"
     id="namedview7"
     showgrid="false"
     inkscape:zoom="62.228081"
     inkscape:cx="6.1175436"
     inkscape:cy="7.1627977"
     inkscape:window-x="1912"
     inkscape:window-y="-8"
     inkscape:window-maximized="1"
     inkscape:current-layer="Layer_1" />
  <title
     id="title2">ic_search</title>
  <path
     d="M11.84,6.18A5.92,5.92,0,0,0,6.31.07,5.91,5.91,0,0,0,.21,7a6,6,0,0,0,5.63,4.84,5.9,5.9,0,0,0,3.94-1.41l.28.27a.94.94,0,0,0,.25.88l3.22,3.21a.94.94,0,0,0,1.32-1.33l-3.21-3.21a1,1,0,0,0-.9-.24l-.27-.27A6,6,0,0,0,11.84,6.18ZM6,10A4.11,4.11,0,0,1,6,1.74a4.06,4.06,0,0,1,4.12,4.11A4.2,4.2,0,0,1,6,10Z"
     id="path4" />
  <path
     style="fill:#ffffff;fill-opacity:1;stroke:#000000;stroke-width:0.01606992;stroke-opacity:1"
     d="m 13.909398,14.974525 c -0.04621,-0.0112 -0.132984,-0.04437 -0.192839,-0.07372 -0.100492,-0.04928 -0.235943,-0.179496 -1.768352,-1.700038 -0.912738,-0.90567 -1.683806,-1.679996 -1.713483,-1.720725 -0.141548,-0.194254 -0.192936,-0.367119 -0.182991,-0.615566 l 0.0069,-0.171907 L 9.9208522,10.555762 9.7830913,10.418955 9.6223921,10.547918 C 9.14758,10.928959 8.5533699,11.263299 7.9844676,11.469519 6.6175719,11.965 5.2452485,11.947958 3.9015023,11.418815 1.8998358,10.630594 0.45549448,8.7998016 0.17044534,6.6894693 0.12876472,6.3808911 0.12860654,5.5698881 0.17016639,5.2592468 0.31984106,4.1404956 0.7424718,3.138925 1.42804,2.2782775 1.6007085,2.0615132 2.1114,1.5490021 2.3186156,1.3845287 3.2410311,0.6523791 4.2979162,0.21870002 5.4524082,0.09861745 c 0.2629784,-0.02735325 0.8909702,-0.0274386 1.1167,-1.5175e-4 1.1380131,0.13756619 2.1631366,0.5619922 3.0422243,1.2595546 0.2557977,0.2029773 0.7203065,0.6668192 0.9215805,0.9202572 0.630059,0.7933523 1.028158,1.6695136 1.208423,2.659571 0.06914,0.3797172 0.08263,0.5464008 0.08263,1.0204396 0,0.4739815 -0.01349,0.6405959 -0.08262,1.0204397 -0.172726,0.9491115 -0.573256,1.8520918 -1.15075,2.5943253 -0.0685,0.088038 -0.124542,0.1642137 -0.124542,0.1692792 0,0.00507 0.05803,0.066892 0.128955,0.1373922 l 0.128955,0.1281825 0.188426,-0.0054 c 0.220977,-0.00637 0.297405,0.0089 0.485719,0.09726 l 0.136594,0.06406 1.672575,1.670783 c 1.110107,1.108918 1.689763,1.699143 1.723686,1.755116 0.0858,0.141576 0.119704,0.257694 0.127481,0.43666 0.01256,0.289108 -0.06729,0.496009 -0.26947,0.698185 -0.131175,0.131176 -0.26024,0.206638 -0.425326,0.248682 -0.114031,0.02904 -0.337144,0.02968 -0.45426,0.0013 z M 6.38092,9.9829258 C 7.9314989,9.8145415 9.2841032,8.773094 9.8443978,7.316196 10.04209,6.8021494 10.119093,6.3787038 10.119093,5.8056239 c 0,-0.4151797 -0.02313,-0.6159706 -0.112921,-0.9802648 C 9.8647433,4.2515656 9.5899838,3.6969582 9.2180086,3.2344375 8.5743789,2.4341363 7.5941324,1.8917625 6.5615531,1.7646117 6.3315561,1.7362901 5.7781017,1.7316818 5.5567035,1.756245 4.013179,1.9274925 2.7005901,2.9369727 2.1353853,4.3874979 1.959793,4.8381328 1.868658,5.3446395 1.868658,5.8699036 c 0,0.5252641 0.091135,1.0317708 0.2667273,1.4824057 0.5611897,1.4402211 1.8730475,2.4556739 3.3972134,2.6296367 0.1756358,0.020046 0.6675139,0.020615 0.8483213,9.798e-4 z"
     id="path874"
     inkscape:connector-curvature="0" />
</svg>
