<?xml version="1.0" encoding="UTF-8" standalone="no"?>
<!-- Created with Inkscape (http://www.inkscape.org/) -->

<svg
   xmlns:dc="http://purl.org/dc/elements/1.1/"
   xmlns:cc="http://creativecommons.org/ns#"
   xmlns:rdf="http://www.w3.org/1999/02/22-rdf-syntax-ns#"
   xmlns:svg="http://www.w3.org/2000/svg"
   xmlns="http://www.w3.org/2000/svg"
   xmlns:sodipodi="http://sodipodi.sourceforge.net/DTD/sodipodi-0.dtd"
   xmlns:inkscape="http://www.inkscape.org/namespaces/inkscape"
   width="47.50462mm"
   height="47.427715mm"
   viewBox="0 0 47.50462 47.427715"
   version="1.1"
   id="svg3918"
   inkscape:version="0.92.4 (5da689c313, 2019-01-14)"
   sodipodi:docname="ic_visualizationstyles.svg">
  <defs
     id="defs3912" />
  <sodipodi:namedview
     id="base"
     pagecolor="#ffffff"
     bordercolor="#666666"
     borderopacity="1.0"
     inkscape:pageopacity="0.0"
     inkscape:pageshadow="2"
     inkscape:zoom="0.35"
     inkscape:cx="518.34394"
     inkscape:cy="-207.51568"
     inkscape:document-units="mm"
     inkscape:current-layer="layer1"
     showgrid="false"
     inkscape:window-width="2498"
     inkscape:window-height="1417"
     inkscape:window-x="-8"
     inkscape:window-y="-8"
     inkscape:window-maximized="1"
     fit-margin-top="0"
     fit-margin-left="0"
     fit-margin-right="0"
     fit-margin-bottom="0" />
  <metadata
     id="metadata3915">
    <rdf:RDF>
      <cc:Work
         rdf:about="">
        <dc:format>image/svg+xml</dc:format>
        <dc:type
           rdf:resource="http://purl.org/dc/dcmitype/StillImage" />
        <dc:title></dc:title>
      </cc:Work>
    </rdf:RDF>
  </metadata>
  <g
     inkscape:label="Layer 1"
     inkscape:groupmode="layer"
     id="layer1"
     transform="translate(31.311834,-46.500428)">
    <path
       style="fill:#ffffff;stroke-width:0.06681738"
       d="m -26.16845,93.82948 c -0.545803,-0.11715 -0.895106,-0.24683 -1.570209,-0.582959 -0.708787,-0.352901 -1.044226,-0.587103 -1.594364,-1.113171 -0.789487,-0.754952 -1.372742,-1.715961 -1.746268,-2.877251 -0.245631,-0.763659 -0.305541,-1.94414 -0.137094,-2.70128 0.257527,-1.157531 0.879851,-2.229789 1.867151,-3.21709 1.639031,-1.63903 3.401217,-2.24288 5.363517,-1.83792 0.371047,0.0766 1.029137,0.300551 1.669275,0.56813 l 1.056746,0.441721 2.632705,-2.632702 2.632704,-2.63271 -0.537863,-1.126828 c -0.671214,-1.4062 -0.874647,-2.149941 -0.929614,-3.398621 -0.06901,-1.56776 0.160399,-2.60225 0.930061,-4.19393 0.286131,-0.59174 0.452167,-1.00938 0.414785,-1.04336 -0.08877,-0.0807 -7.863793,-6.63968 -7.984699,-6.73588 -0.07935,-0.0631 -0.259178,-0.0361 -0.866331,0.13045 -0.691544,0.18965 -0.857324,0.20999 -1.701633,0.20881 -0.836935,-10e-4 -0.987052,-0.0197 -1.425543,-0.17584 -1.288847,-0.45899 -2.27574,-1.42364 -2.848399,-2.78422 -0.547343,-1.30043 -0.457594,-2.541789 0.287793,-3.980599 0.436597,-0.84276 0.972143,-1.36811 1.823519,-1.78882 1.808593,-0.89371 3.422779,-0.74937 5.113739,0.45727 1.655234,1.18115 2.192941,3.34086 1.387621,5.573389 -0.08945,0.24798 -0.162642,0.5046 -0.162642,0.57026 0,0.27164 0.686353,0.98961 2.338607,2.44633 1.328087,1.17092 5.437023,4.60099 5.511593,4.60099 0.0465,0 0.606931,-0.25363 1.245405,-0.56362 1.666642,-0.8092 1.567201,-0.78935 4.1161764,-0.82187 l 2.153504,-0.0275 0.197842,-0.64657 c 0.394306,-1.28861 2.201553,-7.33288 2.245439,-7.509779 0.04002,-0.16133 -0.03058,-0.26518 -0.635962,-0.93544 -0.560896,-0.62101 -0.737831,-0.8718 -1.003329,-1.42214 -0.674754,-1.39866 -0.763419,-2.78473 -0.270391,-4.22695 0.524594,-1.53455 1.690084,-2.62304 3.377929,-3.15474 0.598215,-0.18844 1.710206,-0.2529 2.34728,-0.13605 2.151208,0.39456 3.82537,2.07004 4.27137,4.27475 0.441185,2.1809 -0.803283,4.47619 -3.010511,5.55259 -0.75497,0.368169 -1.278861,0.507859 -2.142934,0.571379 -0.328118,0.0241 -0.649336,0.0709 -0.713817,0.10405 -0.291627,0.14972 -0.681919,1.23788 -1.810996,5.04917 -0.345755,1.16712 -0.698021,2.395 -0.782809,2.72861 l -0.154163,0.60657 0.162463,0.22865 c 0.229247,0.32265 0.977902,1.18437 1.64027,1.888 0.467392,0.49651 0.584716,0.58832 0.688346,0.53866 0.06871,-0.0329 1.783117,-1.20119 3.809801,-2.59615 l 3.684879,-2.53629 -0.04111,-0.90481 c -0.03566,-0.78498 -0.02294,-0.97382 0.0961,-1.426 0.431144,-1.63773 1.7966,-2.98503 3.481824,-3.43554 0.65778,-0.17584 1.8391656,-0.15615 2.4054246,0.0401 0.693777,0.24044 1.322718,0.64903 1.904912,1.23754 1.103887,1.11587 1.642499,2.50237 1.440363,3.70781 -0.31595,1.88417 -1.499314,3.40465 -3.102766,3.98667 -0.5412,0.19644 -1.4161956,0.31693 -1.9024336,0.26196 -0.965856,-0.10919 -1.733058,-0.41743 -2.76348,-1.11028 -0.320527,-0.21552 -0.606203,-0.39186 -0.634841,-0.39186 -0.02864,0 -1.725398,1.11519 -3.770583,2.4782 -3.326307,2.21681 -3.722796,2.49959 -3.759086,2.68105 -0.0223,0.11157 -0.04057,1.12389 -0.04057,2.2496 v 2.04675 l 3.558717,1.18554 c 1.957293,0.65205 3.599945,1.18554 3.65034,1.18554 0.05039,0 0.405437,-0.30225 0.788985,-0.671679 1.60496,-1.54585 2.738752,-2.083451 4.3965836,-2.08469 0.674738,-5.29e-4 0.894956,0.0274 1.389573,0.175779 1.094306,0.32839 1.900584,0.825392 2.693887,1.66053 1.622883,1.708471 2.073172,4.0321 1.168159,6.028061 -0.291946,0.643879 -0.821108,1.370809 -1.401527,1.92533 -0.631169,0.60302 -0.995558,0.85729 -1.700358,1.186508 -2.091391,0.976903 -4.3566896,0.569273 -6.1142426,-1.100227 -1.195954,-1.136042 -1.617557,-2.104253 -1.846178,-4.239721 -0.05272,-0.49241 -0.11993,-0.917101 -0.149362,-0.94375 -0.02943,-0.0266 -1.647111,-0.57881 -3.594838,-1.227031 l -3.541321,-1.17859 -1.024052,1.040601 c -0.563229,0.572329 -1.266467,1.220341 -1.56275,1.440019 -1.287679,0.95476 -2.586593,1.32973 -4.606181,1.32973 -1.5737664,0 -2.1512224,-0.14546 -3.7474714,-0.943999 -0.504817,-0.25254 -0.954405,-0.459161 -0.999083,-0.459161 -0.0897,0 -5.265938,5.141881 -5.265938,5.230979 0,0.0306 0.162565,0.437182 0.361256,0.903531 0.613569,1.440101 0.674413,1.69744 0.674413,2.85242 0,0.86605 -0.02138,1.07037 -0.157292,1.503389 -0.225865,0.719593 -0.492051,1.276361 -0.91186,1.907292 -1.215933,1.82744 -3.050826,2.84548 -5.103318,2.83143 -0.427096,-0.003 -0.971979,-0.0473 -1.21085,-0.0985 z m 2.161339,-2.031701 c 0.830858,-0.2125 1.343549,-0.502388 1.954477,-1.105109 0.597495,-0.58946 0.937908,-1.178851 1.13551,-1.966032 0.153321,-0.61078 0.104227,-1.75632 -0.100439,-2.343689 -0.582533,-1.671781 -2.118391,-2.848618 -3.818056,-2.925548 -1.23272,-0.0558 -2.156307,0.325178 -3.108823,1.282369 -0.896765,0.901171 -1.297606,1.801968 -1.297606,2.91606 0,1.13891 0.445984,2.18132 1.301342,3.041669 0.574363,0.577709 1.179484,0.935212 1.905892,1.125989 0.537414,0.141142 1.419032,0.129961 2.027703,-0.02569 z m 35.276226,-8.45429 c 0.667224,-0.173788 1.177457,-0.479229 1.717437,-1.02812 1.345171,-1.367348 1.534033,-3.011228 0.520115,-4.527169 -1.378955,-2.0617 -3.8650406,-2.337681 -5.6117406,-0.622951 -1.15035,1.1293 -1.479177,2.675469 -0.851331,4.00304 0.785032,1.659951 2.605595,2.597139 4.2255196,2.1752 z M -8.2907016,77.96378 c 2.054153,-0.522041 3.597904,-2.007881 4.213933,-4.055861 0.240636,-0.8 0.256622,-2.03031 0.03785,-2.9131 -0.910715,-3.67493 -4.840291,-5.514 -8.1981104,-3.83678 -1.510721,0.7546 -2.528483,1.95884 -3.016422,3.5691 -0.154091,0.508521 -0.178806,0.71108 -0.181875,1.490531 -0.0041,1.042189 0.1382,1.74778 0.518491,2.570859 0.816467,1.767141 2.468076,3.003409 4.417057,3.306259 0.5659604,0.0879 1.5853994,0.0275 2.2090734,-0.131008 z M 10.00116,64.300129 c 0.799825,-0.20833 1.415508,-0.68268 1.754214,-1.35153 0.180867,-0.35716 0.195493,-0.44103 0.195493,-1.12103 0,-0.96704 -0.148524,-1.36293 -0.729144,-1.94356 -0.557094,-0.55709 -0.981877,-0.72391 -1.8433256,-0.72391 -0.861449,0 -1.286235,0.16682 -1.843325,0.72391 -0.568492,0.5685 -0.72271,0.97403 -0.726388,1.91015 -0.0024,0.62337 0.01707,0.74385 0.175004,1.08078 0.543039,1.1584 1.78666,1.74578 3.0174716,1.42519 z m -36.093172,-5.27508 c 0.566201,-0.12001 0.929225,-0.30664 1.335273,-0.68645 1.049973,-0.98213 1.022826,-2.842759 -0.05586,-3.828619 -0.523377,-0.47834 -0.958252,-0.62895 -1.823574,-0.63156 -0.622615,-0.002 -0.744263,0.0179 -1.080781,0.17564 -1.006893,0.47201 -1.609227,1.56707 -1.500777,2.728439 0.100208,1.07309 0.991729,2.05852 2.050047,2.26597 0.431937,0.0847 0.580988,0.0814 1.075671,-0.0234 z M -0.7490556,54.73359 c 1.313653,-0.42925 2.176184,-1.62973 2.176184,-3.02886 0,-1.32004 -0.774385,-2.47408 -2.003718,-2.98606 -0.374611,-0.15602 -0.528027,-0.18121 -1.103289,-0.18114 -0.801235,1e-4 -1.230106,0.13468 -1.856415,0.58254 -0.952942,0.68143 -1.426344,1.64477 -1.371544,2.79099 0.02511,0.52541 0.0574,0.64616 0.307758,1.15141 0.715293,1.44352 2.361433,2.15785 3.851024,1.67112 z"
       id="path3826"
       inkscape:connector-curvature="0" />
  </g>
</svg>
